<?xml version="1.0" encoding="UTF-8" standalone="no"?>
<!-- Generator: Adobe Illustrator 12.0.0, SVG Export Plug-In . SVG Version: 6.00 Build 51448)  -->

<svg
   version="1.1"
   id="Layer_1"
   width="44.034"
   height="39.368"
   viewBox="0 0 44.034 39.368"
   overflow="visible"
   enable-background="new 0 0 44.034 39.368"
   xml:space="preserve"
   sodipodi:docname="stacksLogo.svg"
   inkscape:version="1.2 (1:1.2.1+202207142221+cd75a1ee6d)"
   inkscape:export-filename="../repos/resturant-page/images/stackLogo.svg"
   inkscape:export-xdpi="98.10601"
   inkscape:export-ydpi="98.10601"
   xmlns:inkscape="http://www.inkscape.org/namespaces/inkscape"
   xmlns:sodipodi="http://sodipodi.sourceforge.net/DTD/sodipodi-0.dtd"
   xmlns="http://www.w3.org/2000/svg"
   xmlns:svg="http://www.w3.org/2000/svg"><defs
   id="defs23" /><sodipodi:namedview
   id="namedview21"
   pagecolor="#ffffff"
   bordercolor="#000000"
   borderopacity="0.25"
   inkscape:showpageshadow="2"
   inkscape:pageopacity="0.0"
   inkscape:pagecheckerboard="0"
   inkscape:deskcolor="#d1d1d1"
   showgrid="false"
   inkscape:zoom="7"
   inkscape:cx="-0.28571429"
   inkscape:cy="9.7857143"
   inkscape:window-width="1600"
   inkscape:window-height="836"
   inkscape:window-x="0"
   inkscape:window-y="0"
   inkscape:window-maximized="1"
   inkscape:current-layer="g1039" />






<g
   id="g923"><g
     id="g1039"
     transform="translate(0,1.0265065)"><text
       fill="#3f3c3d"
       font-family="HoboStd"
       font-size="12px"
       id="text2"
       x="2.8965077"
       y="29.856136"
       style="font-style:normal;font-variant:normal;font-weight:normal;font-stretch:normal;font-size:14.6667px;font-family:Karumbi;-inkscape-font-specification:Karumbi;letter-spacing:-1px"><tspan
         sodipodi:role="line"
         id="tspan1022"
         x="2.8965077"
         y="29.856136"
         style="font-style:normal;font-variant:normal;font-weight:normal;font-stretch:normal;font-size:14.6667px;font-family:'Lohit Telugu';-inkscape-font-specification:'Lohit Telugu'">STACKS</tspan></text><g
       id="g8"
       transform="translate(0,-1.5078125)">
	<rect
   x="2.3670001"
   y="32.167"
   fill="#3f3c3d"
   width="38.991001"
   height="1.543"
   id="rect4" />
	<rect
   y="34.534"
   fill="#3f3c3d"
   width="44.034"
   height="4.8340001"
   id="rect6"
   x="0" />
</g><g
       id="g910"
       transform="translate(-0.98075539)"><rect
         x="3.5012555"
         y="17.971001"
         fill="#3f3c3d"
         width="38.993"
         height="1.543"
         id="rect10" /><rect
         x="0.98175484"
         y="12.313"
         fill="#3f3c3d"
         width="44.032001"
         height="4.835"
         id="rect12" /></g><polygon
       fill="#3f3c3d"
       points="27.246,1.172 19.472,15.513 18.675,15.438 25.553,0.397 26.232,0 27.505,0.12 "
       id="polygon14"
       transform="translate(-0.98075539)" /><path
       fill="#717233"
       d="m 27.563245,7.731 -0.968,2.3 c 0,0 -1.276,1.318 -2.341,1.169 0,0 -3.289,0.721 -6.449,-3.848 0,0 -0.513,-2.262 1.116,-3.362 0,0 4.362,-1.946 8.132,1.479 z"
       id="path16" /><path
       fill="#d04343"
       d="m 25.221245,7.054 c 0,0 0.975,-0.756 1.388,0.012 l 0.156,0.736 -0.47,1.257 -0.665,0.714 c 0,0 -0.805,0.606 -0.915,-0.262 0,0 -0.536,-0.246 0.506,-2.457 z"
       id="path18" /></g></g>
</svg>
